nColumns=19
nRows=88
DataType=double
version=3
OpenSimVersion=4.1
endheader
time	ground_force_calcn_r_vx	ground_force_calcn_r_vy	ground_force_calcn_r_vz	ground_force_calcn_r_px	ground_force_calcn_r_py	ground_force_calcn_r_pz	ground_force_calcn_r_mx	ground_force_calcn_r_my	ground_force_calcn_r_mz	ground_force_calcn_l_vx	ground_force_calcn_l_vy	ground_force_calcn_l_vz	ground_force_calcn_l_px	ground_force_calcn_l_py	ground_force_calcn_l_pz	ground_force_calcn_l_mx	ground_force_calcn_l_my	ground_force_calcn_l_mz
0	-9.61553	96.5992	10.0782	0.134923	0	-0.259985	-0.0237047	0.238141	0.0248452	0	0	0	0	0	0	0	0	0
0.01	-14.5698	131.416	11.9254	0.139413	0	-0.258334	-0.0283176	0.255418	0.023178	0	0	0	0	0	0	0	0	0
0.02	-20.5502	171.041	13.6395	0.143817	0	-0.256891	-0.0334309	0.278247	0.0221887	0	0	0	0	0	0	0	0	0
0.03	-27.5397	214.563	15.0409	0.147731	0	-0.255742	-0.0395039	0.307776	0.0215751	0	0	0	0	0	0	0	0	0
0.04	-35.3887	260.669	15.9254	0.151419	0	-0.254744	-0.0469368	0.345731	0.0211222	0	0	0	0	0	0	0	0	0
0.05	-43.7838	307.94	16.1042	0.155024	0	-0.253811	-0.056011	0.393937	0.0206016	0	0	0	0	0	0	0	0	0
0.06	-52.3439	354.973	15.4534	0.158611	0	-0.252894	-0.0668979	0.453671	0.0197502	0	0	0	0	0	0	0	0	0
0.07	-60.6725	400.449	13.9513	0.162209	0	-0.251975	-0.0798669	0.527136	0.018365	0	0	0	0	0	0	0	0	0
0.08	-68.3953	443.223	11.6946	0.165813	0	-0.251058	-0.0956406	0.619781	0.0163531	0	0	0	0	0	0	0	0	0
0.09	-75.194	482.378	8.88519	0.169418	0	-0.250155	-0.115098	0.738367	0.0136004	0	0	0	0	0	0	0	0	0
0.1	-80.8376	517.316	5.76269	0.173022	0	-0.249276	-0.138284	0.884939	0.00985786	0	0	0	0	0	0	0	0	0
0.11	-85.2215	547.814	2.54172	0.176632	0	-0.248423	-0.163994	1.05417	0.00489108	0	0	0	0	0	0	0	0	0
0.12	-88.3447	573.935	-0.59782	0.180262	0	-0.247592	-0.190372	1.23676	-0.00128823	0	0	0	0	0	0	0	0	0
0.13	-90.2518	595.867	-3.51573	0.18392	0	-0.246781	-0.215419	1.42225	-0.00839157	0	0	0	0	0	0	0	0	0
0.14	-91.0053	613.811	-6.12627	0.187612	0	-0.245979	-0.237162	1.59961	-0.0159652	0	0	0	0	0	0	0	0	0
0.15	-90.6844	627.94	-8.39627	0.191338	0	-0.245178	-0.253899	1.75811	-0.023508	0	0	0	0	0	0	0	0	0
0.16	-89.3989	638.39	-10.3268	0.195106	0	-0.244363	-0.264511	1.88885	-0.0305546	0	0	0	0	0	0	0	0	0
0.17	-87.2829	645.282	-11.9375	0.198926	0	-0.243524	-0.268563	1.98548	-0.0367309	0	0	0	0	0	0	0	0	0
0.18	-84.4838	648.763	-13.2511	0.202811	0	-0.242652	-0.266286	2.04485	-0.0417664	0	0	0	0	0	0	0	0	0
0.19	-81.1524	649.064	-14.2772	0.206778	0	-0.24174	-0.258389	2.06662	-0.0454587	0	0	0	0	0	0	0	0	0
0.2	-77.4351	646.521	-15.0089	0.210837	0	-0.24079	-0.245792	2.05216	-0.0476407	0	0	0	0	0	0	0	0	0
0.21	-73.4655	641.555	-15.4301	0.214997	0	-0.239805	-0.229408	2.00336	-0.0481831	0	0	0	0	0	0	0	0	0
0.22	-69.3582	634.627	-15.5306	0.219253	0	-0.238793	-0.210026	1.92174	-0.0470287	0	0	0	0	0	0	0	0	0
0.23	-65.2058	626.193	-15.3204	0.223597	0	-0.237764	-0.188299	1.8083	-0.0442418	0	0	0	0	0	0	0	0	0
0.24	-61.0801	616.676	-14.8392	0.228012	0	-0.236723	-0.164833	1.66418	-0.0400456	0	0	0	0	0	0	0	0	0
0.25	-57.0356	606.455	-14.1551	0.232473	0	-0.235679	-0.140258	1.49135	-0.0348092	0	0	0	0	0	0	0	0	0
0.26	-53.1128	595.875	-13.3522	0.236954	0	-0.234635	-0.115246	1.29295	-0.0289721	0	0	0	0	0	0	0	0	0
0.27	-49.337	585.257	-12.5134	0.241422	0	-0.233597	-0.0904619	1.0731	-0.0229439	0	0	0	0	0	0	0	0	0
0.28	-45.7182	574.912	-11.7051	0.245843	0	-0.232571	-0.0664992	0.836235	-0.0170257	0	0	0	0	0	0	0	0	0
0.29	-42.2489	565.134	-10.9702	0.250175	0	-0.231568	-0.0438415	0.586437	-0.0113837	0	0	0	0	0	0	0	0	0
0.3	-38.9035	556.194	-10.3296	0.254377	0	-0.230598	-0.0228758	0.32705	-0.00607396	0	0	0	0	0	0	0	0	0
0.31	-35.6401	548.333	-9.78996	0.258405	0	-0.229675	-0.0039478	0.060738	-0.00108442	0	0	0	0	0	0	0	0	0
0.32	-32.4063	541.762	-9.35098	0.262221	0	-0.228811	0.0125807	-0.210322	0.00363022	0	0	0	0	0	0	0	0	0
0.33	-29.1444	536.669	-9.01173	0.265788	0	-0.228016	0.0262872	-0.484056	0.00812825	0	0	0	0	0	0	0	0	0
0.34	-25.796	533.224	-8.77276	0.269082	0	-0.227297	0.0366763	-0.758129	0.012473	0	0	0	0	0	0	0	0	0
0.35	-22.3034	531.582	-8.63595	0.272086	0	-0.226658	0.0431984	-1.0296	0.0167266	0	0	0	0	0	0	0	0	0
0.36	-18.6111	531.878	-8.60385	0.274795	0	-0.226098	0.0453078	-1.29483	0.0209456	0	0	0	0	0	0	0	0	0
0.37	-14.6671	534.21	-8.68	0.277221	0	-0.225609	0.0425422	-1.54948	0.0251764	0	0	0	0	0	0	0	0	0
0.38	-10.4244	538.626	-8.87085	0.279384	0	-0.225183	0.0346133	-1.78846	0.0294549	0	0	0	0	0	0	0	0	0
0.39	-5.84206	545.107	-9.18701	0.281319	0	-0.224807	0.0214993	-2.00604	0.033809	0	0	0	0	0	0	0	0	0
0.4	-0.886588	553.556	-9.64184	0.283066	0	-0.224469	0.00351737	-2.19613	0.0382521	0	0	0	0	0	0	0	0	0
0.41	4.46687	563.789	-10.2468	0.28467	0	-0.224156	-0.0186414	-2.35283	0.0427623	0	0	0	0	0	0	0	0	0
0.42	10.2328	575.533	-11.0047	0.286176	0	-0.223854	-0.0439372	-2.4712	0.0472515	0	0	0	0	0	0	0	0	0
0.43	16.4155	588.437	-11.9034	0.287623	0	-0.223559	-0.071075	-2.54778	0.0515388	0	0	0	0	0	0	0	0	0
0.44	23.0096	602.083	-12.9113	0.28905	0	-0.223266	-0.0986393	-2.58106	0.0553491	0	0	0	0	0	0	0	0	0
0.45	29.9999	615.999	-13.9763	0.290486	0	-0.222974	-0.125239	-2.57159	0.0583462	0	0	0	0	0	0	0	0	0
0.46	37.3623	629.67	-15.0289	0.291955	0	-0.222685	-0.149637	-2.52184	0.060191	0	0	0	0	0	0	0	0	0
0.47	45.0642	642.562	-15.988	0.29347	0	-0.222405	-0.170829	-2.43582	0.0606072	0	0	0	0	0	0	0	0	0
0.48	53.0631	654.135	-16.7686	0.295042	0	-0.222139	-0.188081	-2.31857	0.059436	0	0	0	0	0	0	0	0	0
0.49	61.3019	663.86	-17.2899	0.296673	0	-0.221891	-0.200912	-2.17574	0.0566659	0	0	0	0	0	0	0	0	0
0.5	69.7038	671.232	-17.4818	0.298361	0	-0.221665	-0.209059	-2.01319	0.0524322	0	0	0	0	0	0	0	0	0
0.51	78.1665	675.761	-17.2901	0.300103	0	-0.221465	-0.21245	-1.83666	0.046993	0	0	0	0	0	0	0	0	0
0.52	86.5562	676.982	-16.6792	0.30189	0	-0.221291	-0.211169	-1.65162	0.040692	-2.29258	23.5667	-6.02106	0.785863	0	-0.255681	-0.0273423	0.281066	-0.0718097
0.53	94.7044	674.468	-15.6342	0.303718	0	-0.221141	-0.205465	-1.46328	0.0339191	-5.09202	42.8272	-7.0925	0.814782	0	-0.272526	-0.0465234	0.391292	-0.0648008
0.54	102.408	667.836	-14.1622	0.30558	0	-0.221016	-0.195718	-1.27634	0.0270662	-8.8129	66.8242	-8.23624	0.828826	0	-0.279734	-0.0577617	0.437981	-0.0539822
0.55	109.433	656.763	-12.2936	0.307473	0	-0.220907	-0.182423	-1.09482	0.0204934	-13.5681	95.7688	-9.39623	0.837546	0	-0.283554	-0.0654797	0.462179	-0.0453461
0.56	115.518	640.997	-10.0834	0.309396	0	-0.220813	-0.166177	-0.922094	0.0145053	-19.4413	129.589	-10.4917	0.843786	0	-0.285824	-0.0715487	0.476921	-0.0386121
0.57	120.39	620.378	-7.61119	0.311351	0	-0.220725	-0.147646	-0.760828	0.00933432	-26.467	167.816	-11.4128	0.848733	0	-0.287272	-0.0768724	0.487417	-0.033148
0.58	123.776	594.858	-4.97985	0.313343	0	-0.220638	-0.127552	-0.613004	0.00513176	-34.6032	209.47	-12.016	0.852987	0	-0.288237	-0.0819167	0.495883	-0.0284457
0.59	125.429	564.537	-2.30997	0.315384	0	-0.220544	-0.106655	-0.480038	0.00196422	-43.646	253.169	-12.1095	0.85689	0	-0.288911	-0.0867777	0.503354	-0.0240763
0.6	125.157	529.694	0.269509	0.317487	0	-0.220439	-0.0857646	-0.362975	-0.000184682	-53.2188	297.404	-11.4688	0.860622	0	-0.289416	-0.0911774	0.50953	-0.019649
0.61	122.846	490.802	2.63513	0.319671	0	-0.220316	-0.0657093	-0.262525	-0.00140951	-62.8886	340.7	-9.91817	0.864277	0	-0.289824	-0.0946013	0.512505	-0.0149196
0.62	118.481	448.526	4.68328	0.321957	0	-0.220174	-0.0472807	-0.178988	-0.0018689	-72.205	381.788	-7.40053	0.867882	0	-0.290167	-0.095783	0.506458	-0.00981712
0.63	112.155	403.706	6.3403	0.324362	0	-0.220007	-0.0311772	-0.112224	-0.0017625	-80.7328	419.711	-4.00811	0.871434	0	-0.290453	-0.0925276	0.48103	-0.00459368
0.64	104.078	357.329	7.56588	0.326911	0	-0.219816	-0.0178863	-0.0614088	-0.00130023	-88.0933	453.885	0.0436062	0.874916	0	-0.29067	-0.0826704	0.425945	4.09218e-05
0.65	94.5679	310.492	8.35075	0.329634	0	-0.219595	-0.00757281	-0.0248635	-0.000668711	-94.0291	484.143	4.47628	0.878313	0	-0.290802	-0.065315	0.336298	0.00310934
0.66	84.0301	264.328	8.71174	0.332568	0	-0.219339	-6.43215e-05	-0.000202332	-6.66847e-06	-98.4324	510.681	8.99902	0.881616	0	-0.290839	-0.0411647	0.213568	0.00376342
0.67	72.9201	219.942	8.68641	0.335778	0	-0.219037	0.00509895	0.0153795	0.0006074	-101.303	533.89	13.3445	0.884818	0	-0.290768	-0.012142	0.0639911	0.00159944
0.68	61.6964	178.325	8.32936	0.339372	0	-0.218671	0.00846871	0.0244776	0.00114332	-102.698	554.179	17.2984	0.887908	0	-0.290582	0.0190311	-0.102696	-0.0032056
0.69	50.7794	140.3	7.70936	0.34354	0	-0.218208	0.0104503	0.0288735	0.00158657	-102.704	571.883	20.7203	0.890879	0	-0.290285	0.0492736	-0.27437	-0.0099409
0.7	40.5265	106.47	6.90473	0.348639	0	-0.217595	0.0111917	0.0294024	0.00190679	-101.43	587.213	23.5471	0.893732	0	-0.289885	0.0757514	-0.438549	-0.0175857
0.71	31.2172	77.1882	5.99554	0.355359	0	-0.216727	0.0105486	0.0260825	0.00202594	-99.0108	600.228	25.7825	0.896473	0	-0.289396	0.0963519	-0.584109	-0.0250901
0.72	23.0434	52.5595	5.05479	0.365209	0	-0.215397	0.00776708	0.0177159	0.00170378	-95.6064	610.864	27.4795	0.899128	0	-0.28883	0.109967	-0.70262	-0.0316072
0.73	16.101	32.4641	4.14091	0.382166	0	-0.213128	0.000143416	0.000289166	3.68842e-05	-91.4052	619.006	28.7153	0.90173	0	-0.288199	0.116548	-0.789274	-0.036614
0.74	0	0	0	0	0	0	0	0	0	-86.6092	624.576	29.563	0.904321	0	-0.287512	0.116868	-0.842783	-0.0398913
0.75	0	0	0	0	0	0	0	0	0	-81.4182	627.601	30.0702	0.906943	0	-0.286768	0.112147	-0.864468	-0.0414191
0.76	0	0	0	0	0	0	0	0	0	-76.0128	628.228	30.253	0.909632	0	-0.285963	0.103671	-0.856819	-0.041261
0.77	0	0	0	0	0	0	0	0	0	-70.5439	626.706	30.1056	0.912418	0	-0.28509	0.0925406	-0.822123	-0.039493
0.78	0	0	0	0	0	0	0	0	0	-65.1314	623.352	29.6175	0.915324	0	-0.284146	0.0795925	-0.761754	-0.0361935
0.79	0	0	0	0	0	0	0	0	0	-59.868	618.515	28.7931	0.91837	0	-0.283126	0.0654399	-0.67608	-0.0314728
0.8	0	0	0	0	0	0	0	0	0	-54.8282	612.558	27.6638	0.921567	0	-0.282033	0.0505997	-0.565316	-0.0255303
0.81	0	0	0	0	0	0	0	0	0	-50.075	605.838	26.2876	0.924929	0	-0.280872	0.0355869	-0.430552	-0.0186819
0.82	0	0	0	0	0	0	0	0	0	-45.6614	598.7	24.7396	0.928464	0	-0.279655	0.0209155	-0.274239	-0.0113322
0.83	0	0	0	0	0	0	0	0	0	-41.6273	591.468	23.1003	0.932179	0	-0.278396	0.00703335	-0.0999346	-0.00390303
0.84	0	0	0	0	0	0	0	0	0	-37.993	584.433	21.4449	0.936074	0	-0.277111	-0.00574418	0.0883606	0.00324226
0.85	0	0	0	0	0	0	0	0	0	-34.7558	577.842	19.8379	0.940139	0	-0.275819	-0.0172619	0.286992	0.00985273
0.86	0	0	0	0	0	0	0	0	0	-31.8903	571.895	18.3308	0.944361	0	-0.274536	-0.0275036	0.493228	0.0158093
0.87	0	0	0	0	0	0	0	0	0	-29.3526	566.746	16.9638	0.948714	0	-0.27328	-0.0365435	0.705589	0.0211197
